# xmcd
#
# Track frame offsets:
#	182
#	17172
#	44847
#	62417
#	90317
#
# Disc length: 1493 seconds
#
# Revision: 1
# Processed by: cddbd v1.5.1PL0 Copyright (c) Steve Scherf et al.
# Submitted via: EasyCDDAExtractor 6.5.0.1
#
DISCID=3705d305
DTITLE=Gardner Cole - Wall Of Fear
DYEAR=1900
DGENRE=
TTITLE0=Wall Of Fear(Filled With Fear Single Edit)
TTITLE1=Wall Of Fear(Filled With Fear Mix)
TTITLE2=Loopy(Wall Of Fear US CD Single Version)
TTITLE3=Wall Of Fear(Scared - A - That House Mix)
TTITLE4=Wall Of Fear(Fierce Urban Mix)
EXTD=
EXTT0=
EXTT1=
EXTT2=
EXTT3=
EXTT4=
PLAYORDER=
